<svg id="Group_513" data-name="Group 513" xmlns="http://www.w3.org/2000/svg" xmlns:xlink="http://www.w3.org/1999/xlink" width="28" height="28" viewBox="0 0 28 28">
  <defs>
    <linearGradient id="linear-gradient" x1="0.5" x2="0.5" y2="1" gradientUnits="objectBoundingBox">
      <stop offset="0" stop-color="#12a5a3"/>
      <stop offset="0.41" stop-color="#0f8c8a"/>
      <stop offset="0.913" stop-color="#095756"/>
      <stop offset="1" stop-color="#095352"/>
    </linearGradient>
  </defs>
  <path id="Icon_awesome-instagram" data-name="Icon awesome-instagram" d="M14,9.059a7.179,7.179,0,1,0,7.177,7.179A7.167,7.167,0,0,0,14,9.059ZM14,20.9a4.667,4.667,0,1,1,4.666-4.667A4.675,4.675,0,0,1,14,20.9Zm9.144-12.14a1.674,1.674,0,1,1-1.674-1.674A1.67,1.67,0,0,1,23.142,8.765Zm4.753,1.7A8.288,8.288,0,0,0,25.634,4.6a8.337,8.337,0,0,0-5.865-2.262c-2.311-.131-9.238-.131-11.549,0A8.325,8.325,0,0,0,2.354,4.592,8.315,8.315,0,0,0,.093,10.458c-.131,2.312-.131,9.241,0,11.552a8.288,8.288,0,0,0,2.261,5.867,8.348,8.348,0,0,0,5.865,2.262c2.311.131,9.238.131,11.549,0a8.283,8.283,0,0,0,5.865-2.262A8.342,8.342,0,0,0,27.9,22.011c.036-.636.062-1.62.082-3.032.039-2.738.013-6.838-.082-8.514ZM24.909,24.491a4.724,4.724,0,0,1-2.661,2.662c-1.843.731-6.215.562-8.251.562s-6.415.162-8.251-.562a4.724,4.724,0,0,1-2.661-2.662c-.731-1.843-.562-6.217-.562-8.253s-.162-6.417.562-8.253A4.725,4.725,0,0,1,5.746,5.323C7.589,4.592,11.961,4.76,14,4.76s6.415-.162,8.251.562a4.724,4.724,0,0,1,2.661,2.662c.731,1.843.562,6.217.562,8.253S25.64,22.654,24.909,24.491Z" transform="translate(0.005 -2.238)" fill="url(#linear-gradient)"/>
</svg>
