<svg xmlns="http://www.w3.org/2000/svg" xmlns:xlink="http://www.w3.org/1999/xlink" width="28" height="20" viewBox="0 0 28 20">
  <defs>
    <linearGradient id="linear-gradient" x1="0.5" x2="0.5" y2="1" gradientUnits="objectBoundingBox">
      <stop offset="0" stop-color="#12a5a3"/>
      <stop offset="0.41" stop-color="#0f8c8a"/>
      <stop offset="0.913" stop-color="#095756"/>
      <stop offset="1" stop-color="#095352"/>
    </linearGradient>
  </defs>
  <path id="Icon_zocial-email" data-name="Icon zocial-email" d="M.072,22.3V5.839q0-.029.081-.543l9.153,8.286L.18,22.868A2.547,2.547,0,0,1,.072,22.3ZM1.287,4.154a1.107,1.107,0,0,1,.459-.086H26.4a1.453,1.453,0,0,1,.486.086L17.7,12.468,16.489,13.5l-2.4,2.086-2.4-2.086-1.215-1.029Zm.027,19.829,9.207-9.343L14.085,17.7l3.564-3.057,9.207,9.343a1.233,1.233,0,0,1-.459.086H1.746a1.164,1.164,0,0,1-.432-.086Zm17.551-10.4L27.991,5.3a1.8,1.8,0,0,1,.081.543V22.3a2.308,2.308,0,0,1-.081.571Z" transform="translate(-0.072 -4.068)" fill="url(#linear-gradient)"/>
</svg>
